<svg version="1.2" xmlns="http://www.w3.org/2000/svg" viewBox="0 0 360 250" width="360" height="250">
	<title>honeycomb</title>
	<style>
		.s0 { display: none;fill: #f7a211 } 
		.s1 { fill: #f3f3f3 } 
		.s2 { fill: #2b2b2e } 
		.s3 { fill: #f7a211 } 
		.s4 { display: none;fill: #f3f3f3 } 
		.s5 { display: none;fill: #2b2b2e } 
	</style>
	<g id="Background">
		<path id="Path 0" class="s0" d="m192.7 1.9l-8.8 0.6c-7.6 13.9-7.7 14-5.9 16.5 0.9 1.4 2.7 4.4 3.9 6.8l2.1 4.2h16.5l7.5-14c-5.4-10.1-6.8-13.4-6.5-14 0.2-0.5 0.3-0.9 0.2-0.8-0.1 0.1-4.2 0.4-9 0.7zm-135.4 16.2c0.4 0.5-0.9 3.5-2.8 6.7l-3.4 5.7c4.9 8.5 6.7 11.8 7.3 12.8 0.9 1.4 2.5 1.7 8.9 1.7h7.7c6.2-10.9 7.9-14.3 7.8-14.8-0.2-0.4-1.9-3.6-3.8-7l-3.5-6.3c-14.7 0.3-18.6 0.7-18.2 1.2zm82.7 217.6c1.4 0.2 3.9 0.2 5.5 0 1.7-0.2 0.5-0.4-2.5-0.4-3 0-4.4 0.2-3 0.4z"/>
		<path id="Path 1" class="s1" d="m0 58.8c0.1 38.4 0.4 58.1 1 57 0.6-1.1 1.5-1.5 2.2-1q1.3 0.7 0.5-0.5c-0.4-0.8 0.5-3.5 2-6.3l2.8-5h17l8-14.1 16.5 0.1c5.8-10.5 7.8-14.3 8.3-15.2 0.4-1.1 0.3-1.6-0.3-1.3-0.5 0.3-2.4-2-4-5-1.6-3-2.8-6-2.5-6.5 0.3-0.5 0.2-0.9-0.3-0.9-0.4 0.1-4.6 0.1-9.5 0l-8.7-0.1c-6.2-10.8-8-14.5-8-15 0-0.5 1.9-4.1 4.2-8l4.3-6.9 17-0.6 8-13.6c9.3-0.1 13.3-0.1 15 0 1.7 0.1 3.3 0.7 3.7 1.4 0.4 0.7 0.6 1.8 0.3 2.5-0.3 0.6-0.2 1 0.2 0.8 0.5-0.3 1.6 0.8 2.5 2.5 1 1.6 1.5 3.5 1.1 4.2q-0.8 1.2 0.5 0.5c0.7-0.5 1.4-0.2 1.7 0.7 0.4 1.2 2.5 1.6 9.2 1.8 7.4 0.2 8.8 0.5 8.8 1.8 0 0.9 0.3 1.5 0.7 1.3 0.5-0.2 1.3 0.5 1.8 1.6 0.5 1.1 0.7 2.6 0.2 3.2-0.5 1-0.3 1 0.8 0.3 1.2-0.8 1.3-0.6 0.7 0.8-0.4 1-0.3 1.5 0.3 1.2 0.5-0.3 1.7 0.6 2.5 2 1.4 2.4 1.9 2.5 9.5 2.3 6.1-0.2 7.9 0 7.5 1-0.3 0.6 0 1 0.5 0.7 0.5-0.3 0.8-1.2 0.5-2-0.3-0.8 0.1-2.4 0.7-3.5 0.7-1.1 1.7-1.7 2.2-1.2 0.5 0.4 0.6 0.1 0.3-0.5-0.4-0.7-0.3-2.2 0.3-3.3 0.6-1.2 1.5-1.7 2.2-1.2q1.3 0.7 0.5-0.5c-0.4-0.7-0.5-2-0.2-2.8 0.4-1.2 2.3-1.5 9-1.5 7.5 0 8.6-0.2 9.5-2 0.6-1.1 1.4-1.8 2-1.5 0.6 0.3 0.8-0.1 0.5-0.7-0.3-0.7 0.8-3.4 2.5-6l3-4.8c13.8 0.4 17.6 0.2 17.4-0.2-0.2-0.5 0-1.7 0.6-2.8 0.6-1.2 1.5-1.7 2.2-1.2q1.3 0.7 0.5-0.5c-0.4-0.7 0.3-3.1 1.5-5.3l2.3-4h18c5 9.3 6.3 12.5 6 13-0.3 0.6-0.2 0.9 0.2 0.9 0.5-0.1 4.7-0.1 9.5 0l8.8 0.1 8.8 15.5c-3.1 6.2-4.2 7.2-5 6.8q-1.3-0.8-0.5 0.5c0.4 0.6 0.3 2.1-0.3 3.2-0.6 1.1-1.3 1.8-1.8 1.6-0.4-0.2-0.7 0.9-0.7 2.4 0 1.5 0.2 2.6 0.5 2.5 0.3-0.2 2.1 2.2 4 5.5l3.5 5.9c14.2 0.5 18.1 0.3 17.9-0.1-0.2-0.5 0-1.7 0.6-2.8 0.6-1.2 1.5-1.7 2.2-1.2q1.3 0.7 0.5-0.5c-0.4-0.7 0.3-3.1 1.5-5.3l2.3-4c16.5 0 17.6 0.2 18.5 2 0.6 1.1 0.7 2.6 0.2 3.2q-0.7 1.3 0.5 0.5c0.8-0.4 1.7 0.1 2.3 1.3 0.6 1.1 0.7 2.6 0.3 3.3q-0.8 1.2 0.5 0.5c0.8-0.5 1.7 0.3 2.7 2.2 0.8 1.6 1.2 3.1 0.7 3.1-0.4 0.1-1 0.1-1.5 0-0.4 0-0.5 0.4-0.2 0.9 0.3 0.5-0.3 2.3-1.3 3.9-0.9 1.7-2.1 2.7-2.7 2.3-0.6-0.4-0.7-0.2-0.2 0.6 0.4 0.6 0.3 2.1-0.3 3.2-0.6 1.1-1.4 1.8-2 1.5-0.6-0.3-0.9 0-0.8 0.7 0.2 0.8-2 1.1-8 1-4.6-0.1-8.4 0.2-8.7 0.8-0.3 0.5-1.1 0.7-1.7 0.3q-1.3-0.8-0.5 0.5c0.4 0.6 0.3 2.1-0.3 3.2-0.6 1.2-1.5 1.7-2.2 1.3q-1.3-0.8-0.5 0.5c0.4 0.6 0 2.7-0.9 4.5-1.5 3.1-1.4 3.3 2.3 9.9l3.8 6.7c16 0.1 16.6 0.3 18 2.6 0.8 1.4 1.2 3.1 0.7 3.7q-0.7 1.3 0.5 0.5c0.9-0.4 1.8 0.4 2.8 2.3 0.8 1.7 1.3 3.5 1 4-0.3 0.5-0.2 0.9 0.2 0.8 0.5 0 1.5 0.2 2.3 0.6 0.8 0.4 4.6 0.5 8.5 0.4l6.9-0.3 8.2-14 17.9-0.6 8.2 14.6 17.3 0.5 8 14.5v-132.5h-360zm355.4 82.2l-3.9 7h-16.5c-3.1 5.5-4.5 6.8-5 6.5-0.6-0.2-0.8 0.1-0.5 0.8 0.2 0.7-0.4 2.7-1.5 4.5l-2 3.2-16.1-0.5-8.4 14.5c-16.6 0-17.1 0.1-18.3 2.5-0.8 1.6-1.7 2.3-2.5 1.8q-1.2-0.7-0.5 0.5c0.4 0.7 0 2.6-1 4.2-0.9 1.6-2.2 2.6-2.7 2.2-0.6-0.3-0.8-0.2-0.5 0.3 0.3 0.6 2.3 4.5 4.5 8.8l4 7.7 17 0.1 8.7 15.4c-4.3 7.8-6.4 11.3-7.4 12.8-1.7 2.6-2.2 2.8-10.1 2.8h-8.2c-5.8 10-7.5 13.2-7.5 13.4 0 0.3 18.6 0.5 41.5 0.5h41.5c0-89.9-0.2-116-0.3-116-0.2 0-2.1 3.2-4.3 7zm-149.9 87.3l-4.1 7.2-16.9 0.6c-6.3 10.8-7.9 12.7-8.8 12.2q-1.2-0.7-0.5 0.5c0.6 1 10.3 1.2 42.3 1.2 31.9 0 41.6-0.2 42.2-1.2q0.8-1.2-0.5-0.5c-0.8 0.5-2.2-1-4.2-4.8-1.7-3-2.8-5.9-2.5-6.5 0.2-0.5 0.1-0.9-0.3-0.8-0.4 0-4.7 0-9.5 0l-8.7-0.2-8.5-14.9-16-0.1z"/>
		<path id="Path 2" class="s2" d="m179.5 8.1l-4 7-17 0.4-8.5 14.5h-16.5l-8.5 15-15.5-0.5-8.5-14.5h-17l-7.5-14h-18l-8.1 13.5-16.9 0.5c-6.6 11.2-8.5 14.8-8.5 15.3 0 0.4 1.8 3.8 4 7.7l4 7h17c5.8 10.5 7.6 13.7 7.8 14 0.2 0.3-1.5 3.8-3.8 7.7l-4 7.3h-16.5l-8 14h-17l-8.5 15 8 15c11.2 1 15.1 1 15.7 0.6 0.8-0.3 2 0.7 3.2 2.6 1 1.8 2.8 5.1 4 7.3l2.2 4-8.1 14.5 8 15c13.8-0.1 16.9 0.3 17.6 1.2 0.6 0.7 2.6 4 4.3 7.3l3.3 6-8.2 14.5 8.5 15h17l8 14.5 17.5 0.5 8.5-15h16l7.5 14h17l8.5 15 17.9-0.5 8.1-13.7 17-0.3 8-14.5h16c8 13.7 8 13.8 13 14.4 2.7 0.3 6.6 0.6 8.5 0.5 3.3 0 3.8 0.4 7.5 6.8l4 6.8 18 0.5 8.4-14.5c15.8 0.5 16.2 0.4 17.9-2.3 1.1-1.5 3.1-5 4.6-7.7l2.7-5c-5.6-10.1-7.8-13.6-8.4-14.3q-1.2-1.3-9.2-1.2h-8l-7.8-14.5 7.8-13.5h17l8.5-15 15.5 1.3 9.1-14.8 16.9-0.6 8.5-14.9-8-15h-17l-8.5-15h-17.5l-8.5 14.5h-15.8l-8.3-14-16.9-0.5c-7.5-13.4-7.6-13.6-6.1-16.8 0.9-1.7 2.7-5 4.1-7.2l2.5-4c12.8 0.1 16.8-0.2 17.2-0.7 0.4-0.4 2.5-3.7 4.7-7.3l3.9-6.5-8.8-15.5h-17.5l-8 14h-17c-5.8-10.1-7.5-13.3-7.5-13.7-0.1-0.5 1.7-3.9 3.9-7.8l4.1-7c-4.2-7-6.1-10.2-6.9-11.8-0.9-1.5-2.1-2.7-2.8-2.7-0.7 0-1.7-0.2-2.3-0.5-0.6-0.3-3.8-0.5-7.2-0.5l-6.3 0.1-8-13.6-18-0.5z"/>
		<path id="Path 3" class="s3" d="m155.2 23.8l-3.9 6.7 8.2 13.8c11.4 0.2 15 0 15.4-0.3 0.4-0.3 2.4-3.4 4.6-7 3.6-6.2 3.7-6.6 2.2-9-0.8-1.4-2.6-4.4-3.9-6.8l-2.3-4.2h-16.4zm50.2 0l-3.7 6.7 7.2 13 16.6 0.6 7.8-13.6c-4.1-7.4-5-10-4.6-10.7q0.8-1.2-0.5-0.5c-0.7 0.4-1.4 0.1-1.7-0.8-0.4-1.1-2.3-1.5-8.9-1.5h-8.5zm-174.8 13.8c-2 3.6-4 6.3-4.6 6q-1-0.5 0 1.5c0.6 1.1 0.8 2.4 0.5 3-0.2 0.5 0 0.9 0.6 0.7 0.5-0.1 2.2 2 3.7 4.8l2.7 5h17l7.5-13.5-8-14h-15.9zm100.2 0c-2 3.6-3.7 6.9-3.7 7.5 0 0.5 1.7 3.9 3.7 7.5l3.8 6.6 15.8-0.6c5.9-9.7 7.7-12.7 7.7-13 0-0.3-1.8-3.7-4-7.5l-4-7h-15.5zm49.5 0.8l-4 7.2 8.2 13.6 16-0.1c5.8-10.1 7.5-13.2 7.5-13.5 0-0.3-1.8-3.6-4-7.5l-4-7h-15.7zm-99.6-0.2c-2 3.3-3.6 6.5-3.6 7.2 0 0.7 1.6 4.1 3.5 7.5l3.5 6.3h16l8-14-7.5-13.1-16.3 0.1zm-23.2 10.4c-1 1.4-1.8 2.7-1.7 3 0.2 0.3-0.8 2.3-2.1 4.3l-2.4 3.8 8.3 14.5h15.5l8-14-7.6-13.5c-15.7-0.6-16.3-0.5-18 1.9zm47.9 4.3l-4.1 6.8 8.3 14.4 15.5 0.1 8-14-7.6-13.5-16-0.6zm50.3-0.5c-2 3.5-3.6 6.8-3.6 7.5 0 0.7 1.7 4.2 3.7 7.8l3.8 6.5 15.9-0.5c3.6-6.2 5-8.7 5.5-9.5 0.5-0.8 1.2-1.3 1.5-1 0.2 0.3-1 3-2.8 6l-3.3 5.5 8.2 13.6 16-0.1 7.8-13.5c-6.8-12.4-7.6-13.1-11-13.7-2.1-0.4-5.7-0.7-8.1-0.8-2.3 0-4.4 0.4-4.7 1-0.3 0.5-1 1-1.5 1-0.6 0-0.8-0.5-0.5-1 0.3-0.6-1.2-4.2-3.3-8l-3.7-7h-16.2zm103.6-4c-0.5 0.7-2.4 3.7-4.1 6.7-1.7 3.1-2.8 5.9-2.4 6.4 0.4 0.4 2.2 3.3 3.9 6.5l3.1 5.6 16.2 0.5c5.5-8.5 7.2-11.8 7.3-12.7 0.1-1-1.3-4.6-3.3-8l-3.5-6.3c-13.4 0-16.6 0.5-17.2 1.3zm-179 19.5l-4 6.7c4.1 7.1 5.9 10.1 6.7 11.3 1.3 1.9 2.6 2.2 9.5 2.3l8 0.2c5.9-9.9 7.6-13 7.6-13.3 0-0.2-1.7-3.5-3.8-7.2l-3.8-6.8h-16.3zm150.3 0l-3.7 6.8 7 13 16.7 0.6 8.1-13.6-7.6-13.5h-16.8zm-173.4 11.2q-2 4-3.3 3.3-1.2-0.8-0.5 0.5c0.4 0.7 0.1 2.2-0.6 3.5-1.3 2-1.1 2.9 2.7 9.5l4.2 7.3 15.9-0.6 7.6-13.5-7.5-14h-16.5zm-23.6 12.5c-0.2 0.9-0.9 1.2-1.7 0.8q-1.2-0.8-0.5 0.5c0.4 0.7 0.3 2.1-0.2 3.2-0.6 1.3-1.5 1.7-2.3 1.3q-1.2-0.8-0.5 0.5c0.4 0.7 0.2 2.2-0.6 3.5-1.2 2-1 2.9 2.8 9.5l4.1 7.2h15.5c3.8-6.2 5.7-9.4 6.5-11.2 1.6-3.2 1.5-3.4-2.2-10l-3.8-6.7c-14.8-0.1-16.7 0.3-17.1 1.4zm47 4.9c-2 3.5-3.6 7-3.5 7.7 0.1 0.8 1.9 4.1 3.9 7.4l3.7 6h15.7c6-10.4 7.7-13.8 7.5-14.2-0.1-0.4-1.8-3.6-3.7-7.1l-3.5-6.2h-16.5zm-68.1 8.3c-2.8 0.3-3.8 1.2-6.8 6.4-1.9 3.3-3.5 6.7-3.5 7.5 0 0.8 0.7 2.6 1.5 4 0.9 1.4 1.2 3 0.8 3.7q-0.8 1.3 0.5 0.5c0.8-0.5 1.8 0.3 2.7 2.3 1.5 3 1.6 3 9.8 3h8.2c2.9-5.1 4.6-8.1 5.7-10l1.9-3.5c-4.3-8.1-6.4-11.3-7.3-12.5-1.3-1.5-2.8-2-6-1.9-2.4 0.1-5.7 0.4-7.5 0.5zm45.2 3.4c-1.3 2.2-3.2 5.4-4.1 7.2-1.6 3.2-1.6 3.4 2 10l3.6 6.8h16.5l7.7-13.5c-5-9.3-7-12.6-7.6-13.3-0.7-0.9-3.6-1.3-8.3-1.3l-7.3 0.1zm199.2 1.2c-1.8 2.9-3.6 6.3-4 7.5-0.5 1.6 0.4 4.3 2.8 8.8l3.5 6.5 16.5-0.1c7.6-13.3 7.6-13.5 6.1-16.7-0.9-1.8-2.7-5-4.1-7.2l-2.5-4h-14.9zm52.9-4.3c-0.3 0.6-1.2 0.7-1.8 0.3q-1.3-0.8-0.5 0.5c0.4 0.7-0.1 2.6-1 4.2-1 1.6-2.2 2.6-2.8 2.2-0.6-0.4-0.7-0.2-0.2 0.6 0.4 0.7 0.2 2.2-0.4 3.5-0.8 1.9-0.4 3.3 2.8 9l3.8 6.7 16 0.1 8.2-13.6c-4.4-7.7-5.5-10.5-5.2-11.2 0.3-0.7 0.1-1-0.5-0.8-0.5 0.3-1.2-0.1-1.5-1-0.4-1.1-2.3-1.5-8.4-1.5-4.4 0-8.2 0.5-8.5 1zm-279.5 21.3c-2.9 5.1-3.8 7.6-3.1 8.5 0.6 0.7 0.7 1.8 0.3 2.5-0.5 0.7-0.4 0.9 0.2 0.5 0.6-0.4 2.2 1.5 3.8 4.3l2.7 4.9h16c3.9-6.2 5.7-9.4 6.6-11.2 1.5-3.2 1.5-3.4-2.3-10l-3.8-6.7-16.3-0.1zm250.5-0.4c-3.8 6.6-3.8 6.7-2.2 9.9 0.9 1.8 2.7 5.1 4.1 7.3l2.5 4h15c6.2-10.5 8-14 8-14.5 0-0.6-1.7-3.8-3.8-7.2l-3.7-6.3h-16zm25.3 14.5c-2.2 3.7-3.8 7.1-3.7 7.5 0.2 0.4 1.9 3.6 3.8 7.1l3.5 6.2c14.2-0.4 18.1-0.9 17.9-1.3-0.2-0.4 1-3.3 2.7-6.5 2.6-4.9 2.9-6.1 2-8.2-0.6-1.4-2.4-4.6-3.9-7l-2.9-4.5-15.5-0.1zm-250.7 0.5l-3.8 6.8 7.3 13 16.8 0.5c5.8-10.1 7.4-13.4 7.2-13.8-0.1-0.4-1.8-3.6-3.7-7l-3.5-6.3-16.4 0.1zm-24.6 13.7c-2 3.6-4.1 6.3-4.7 6-0.5-0.3 1 3 3.5 7.3l4.4 7.7 16.1 0.5 8-14c-4.8-8.9-6.7-12.1-7.3-12.8-0.8-0.8-3.7-1.3-8.7-1.2h-7.6zm250.1 0c-2.1 3.6-3.8 7-3.8 7.5 0 0.6 1.7 3.9 3.8 7.5l3.7 6.5h16c5.8-10.1 7.5-13.4 7.5-14 0-0.5-1.7-3.9-3.7-7.5l-3.8-6.4h-16zm-225.4 15.2c-2.1 3.7-3.8 7.5-3.8 8.4 0 0.9 0.2 1.5 0.5 1.3 0.2-0.2 1.7 1.8 3.2 4.6 1.5 2.7 3.5 5.3 4.5 5.8 1 0.5 4.8 0.9 8.5 1l6.8 0.1c6.1-10.4 7.9-13.8 7.9-14.2 0.1-0.4-1.6-3.7-3.7-7.2l-3.7-6.5-16.5-0.1zm50.2 0c-3.7 6.7-3.8 6.8-2.1 10 0.9 1.8 2.7 5.1 4.1 7.3l2.5 4h15c3.9-6.2 5.7-9.5 6.6-11.3 1.6-3.2 1.6-3.3-2.2-9.9l-3.9-6.8h-16.1zm-24.8 13.7c-2.1 3.6-3.8 7-3.8 7.5 0 0.6 1.6 4 3.5 7.5l3.5 6.5 16.5 0.1c7.8-13.5 7.8-13.6 6.2-16.8-0.9-1.8-2.7-5-4-7l-2.4-3.8-15.8-0.5zm50.2 0.3c-2.2 3.7-4.1 7.1-4 7.5 0 0.4 1.8 3.6 3.8 7.2l3.8 6.5h16l7.8-13.5c-5.3-9.8-7.3-12.8-7.8-13-0.6-0.2-4.3-0.6-8.2-0.9l-7.2-0.6zm51.4-2.1c-1.5 2.6-3.3 5.8-4 7-1.2 2.1-1 3 2.4 9.3l3.7 7 16-0.1c7.6-13.3 7.6-13.5 6.1-16.7-0.9-1.8-2.7-5-4.1-7.2l-2.5-4h-14.9zm-125.4 14.2q-2 4-3.2 3.3-1.3-0.8-0.5 0.5c0.4 0.7 0.1 2.2-0.7 3.5-0.9 1.5-1.1 2.8-0.5 4 0.5 0.9 0.6 2.3 0.2 3q-0.8 1.2 0.5 0.5 1.2-0.8 4 4.3l2.7 5 15.5-0.1c3.9-6.2 5.7-9.4 6.6-11.2 1.6-3.2 1.6-3.4-2.2-10l-3.9-6.7-16.5-0.1zm50 0.8c-1.6 2.6-3.5 5.9-4 7.2-0.9 2.2-0.5 3.6 2.7 9.3l3.8 6.7h15.5l8.5-14.1c-3.5-5.7-5.3-8.8-6.3-10.6l-1.7-3.3h-15.5zm49 1.5c-1.9 3.5-3.6 6.7-3.8 7.3-0.2 0.5 1.4 4 3.5 7.8l3.8 6.7 16-0.5 7.5-13.5-7.5-14h-16zm49.6 0.5l-3.9 6.7c3.3 6.2 5.2 9.5 6.3 11.3l2 3.2 15.3-0.5c5.9-9.3 7.6-12.5 7.6-13.2 0.1-0.7-1.6-4.2-3.7-7.8l-3.7-6.5-16 0.1zm-122.2 9.9c-1 1.6-2.8 4.5-4.1 6.6-1.3 2-2.3 4.4-2.3 5.2 0 0.8 1.6 4.2 3.5 7.5l3.5 6h17c3.3-6.6 4.4-7.7 5.2-7.3q1.3 0.8 0.5-0.5c-0.4-0.6-0.2-2.2 0.4-3.4 0.9-2 0.5-3.3-2.8-9.1l-3.8-6.7c-7.8-0.1-11.2-0.4-12.7-0.6-2.1-0.4-3.1 0.1-4.4 2.3zm47.4 4.4l-4.3 7.2 7.4 13.2 16.6 0.6 7.8-13.6c-3.4-6.2-5.2-9.5-6.3-11.2-2-3.2-2.1-3.3-9.5-3.3h-7.4zm52.2-3.9c-1.1 1.8-3 5.1-4.2 7.3l-2.1 4 7.3 13.5h17c5.4-9.3 7-12.6 7-13.3 0-0.7-1.7-4.2-3.8-7.7l-3.8-6.5-15.4-0.6zm51.1-1.8c-0.4 0.6-2.3 3.8-4.1 7.1l-3.3 6c3.7 6.9 4.8 9.5 4.8 10.1 0 0.6 0.3 1 0.8 0.7 0.4-0.2 0.9 0.3 1.2 1.2 0.4 1.1 2.3 1.5 8.8 1.5l8.2 0.1 8.1-13.6c-3-5.5-4.9-8.6-6.1-10.5l-2.2-3.5c-12-0.1-15.8 0.4-16.2 0.9zm46.8 5.5c-2.4 3.8-4.3 7.2-4.1 7.5 0.1 0.3 1.9 3.5 4 7.1l3.7 6.5h16.5c5.7-9.7 7.4-13.5 7.4-14.7 0.1-1.1-0.1-1.9-0.4-1.8-0.3 0.2-1.7-1.8-3.2-4.6-1.6-2.7-3.4-5.1-4-5.4-0.7-0.2-4.5-0.7-8.4-1l-7.1-0.6zm-125.2 14.6c-2 3.6-3.7 7-3.7 7.5 0 0.6 1.2 3.2 2.8 5.8 1.5 2.6 3.1 5.5 3.5 6.5 0.6 1.5 1.9 1.7 8.9 1.5l8.3-0.3c5.1-8.5 7-10.9 7.5-10.7 0.6 0.1 0.5-0.9-0.1-2.5-0.6-1.5-2.5-5.4-4.3-8.5l-3.1-5.8h-16.1zm100 0.3c-3.7 6.6-3.8 6.8-2.3 10 0.9 1.8 2.7 5 4.1 7.2l2.5 4 16.1-0.5 7.4-13.5c-2.9-5-4.6-8.2-5.6-10.2l-1.9-3.8-16.5 0.1z"/>
		<path id="Path 4" fill-rule="evenodd" class="s1" d="m92 31.3c4.7 0 6.5 0.2 4 0.4-2.5 0.2-6.3 0.2-8.5 0-2.2-0.2-0.2-0.4 4.5-0.4zm125.5 13c4.4 0 6.4 0.2 4.5 0.4-1.9 0.2-5.5 0.2-8 0-2.5-0.2-0.9-0.4 3.5-0.4zm50.8 1.8c4.5 0.1 7.1 0.3 5.7 0.5-1.4 0.2-5.3 0.5-8.7 0.6-3.3 0.2-5.9 0-5.7-0.5 0.3-0.4 4.2-0.6 8.7-0.6zm-266.7 71.9c0.2 0 0.1 0.4-0.1 1-0.3 0.5 0.4 2.8 1.5 5q2 4 3.2 3.3 1.3-0.8 0.5 0.5c-0.4 0.6 0 2.3 0.8 3.7 1.4 2.3 2 2.5 18 2.5l3.5 6.2c1.9 3.5 3.8 7.1 4.2 8 0.5 1.1 0.4 1.6-0.2 1.3-0.6-0.3-1.5 0.4-2 1.5-0.6 1.1-0.7 2.6-0.3 3.2q0.8 1.3-0.5 0.5c-0.8-0.4-1.9 0.5-3.2 2.8-1.1 1.9-2 3.9-2 4.5 0 0.5 0.6 0.7 1.2 0.2q1.3-0.7 0.5 0.5c-0.4 0.8 0.8 4.1 6.3 14.3h17l4 7c2.2 3.8 3.9 7.3 3.7 7.7-0.1 0.5-1.9 3.8-7.7 14.3l8.5 15h17l8 14.5 17.5 0.5 8.5-14.9 16-0.1 1.7 3.5c1 1.9 2.2 3.3 2.8 3 0.5-0.3 0.8 0.1 0.5 0.7-0.3 0.7 0.3 2.6 1.3 4.3 1.8 2.9 2 3 10.1 3 6.8 0 8.4 0.3 9.2 1.7 0.5 1.1 1.4 1.5 2.1 1q1.3-0.7 0.5 0.5c-0.4 0.7 0 2.6 0.8 4.3 0.8 1.6 1.8 2.8 2.2 2.6 0.5-0.2 0.9 0.7 1.3 4.4h-158l-0.2-65.3c-0.1-36 0.2-65.7 0.7-66 0.5-0.4 1-0.7 1.1-0.7zm143.4 59.3c3 0 4.1 0.2 2.5 0.4-1.7 0.2-4.1 0.2-5.5 0-1.4-0.2 0-0.4 3-0.4z"/>
		<path id="Path 5" fill-rule="evenodd" class="s2" d="m201.7 2c0.4 0 2 2.5 3.5 5.5 1.5 3 2.7 5.7 2.6 6-0.2 0.3-1.8-1.9-3.5-5-1.8-3-3.3-5.7-3.3-6 0-0.3 0.3-0.5 0.7-0.5zm-25.2 15c0.3 0 2.1 2.9 7.5 13h16.5l3.3-6c1.7-3.3 3.4-5.8 3.7-5.5 0.3 0.3-0.9 3.1-2.6 6.3-2.7 4.8-3 6.1-2 8.2 0.6 1.4 2.4 4.6 7.1 12l15.5-0.5 8-13.8-3.2-5.8c-1.8-3.3-3.3-6.2-3.3-6.6 0-0.5 0.6 0.1 1.3 1.2 0.8 1.1 2.6 4 6.7 11l-4.1 7c-2.2 3.9-4 7.3-3.9 7.8 0 0.4 1.7 3.6 7.5 13.7h8.5c8.3-0.1 8.5 0 9.8 2.7 0.7 1.5 1 2.9 0.7 3.1-0.3 0.1-0.9-0.7-1.5-1.8-0.9-1.8-1.9-2-18.1-1.5l-7.2 13 7.3 13.5h17l3-5.5c1.6-3 3.2-5.4 3.5-5.2 0.3 0.1-0.8 2.9-5.7 12.2l7.7 13.5 16.9 0.5 3.6 5.8c1.9 3.2 3.2 6 2.8 6.2-0.5 0.3-2.3-2.2-7.3-11.5h-16l-3.7 6.5c-2.1 3.6-3.8 7-3.8 7.5 0 0.5 1.6 3.9 7 14h16.5l2.8-5c1.5-2.8 2.9-4.8 3.2-4.5 0.3 0.3-0.7 2.7-5 10.2l8 13.8 16 0.5 3.8-6.5c2-3.6 3.7-7.1 3.7-7.7 0-0.7-1.4-3.7-3-6.5-1.7-2.9-2.8-5.5-2.5-5.8 0.3-0.3 2 2.2 7 11.5l16 0.1 8.2-13.6-3.4-6.2c-1.8-3.5-3.2-6.5-3-6.8 0.1-0.2 1.9 2.5 7.7 12.5h17l8 15-8.5 14.9-16.9 0.6-3.6 5.8c-1.9 3.2-3.6 5.5-3.7 5.2-0.2-0.3 1.2-3.1 6.3-12l-1.9-3.5c-1.1-1.9-3-5.1-6.4-10.5h-15.7l-7.9 14 2.6 4.8c1.5 2.6 2.5 4.9 2.2 5.2-0.3 0.3-1.7-1.7-6-9.5h-16l-3.7 6.5c-2.1 3.6-3.8 6.9-3.8 7.5 0 0.6 1.7 3.9 7.5 14h8.3c7 0 8.3-0.3 8.7-1.7 0.3-1 0.7-1.6 1-1.3 0.3 0.3 0.3 1.3 0 2.3-0.4 1.4-1.8 1.7-18 1.7l-7.8 13.5 7.8 14.5h8.3c7.8 0 8.3 0.1 10 2.8 1.1 1.5 3.1 5 4.7 7.7 2.6 4.8 2.7 5.1 1.1 7.5-0.9 1.4-1.6 2.1-1.6 1.5 0-0.6 0.4-1.7 1-2.5 0.6-1.1 0-3.1-2.2-7-1.7-3-3.6-6-4.2-6.6-0.6-0.7-4.6-1.5-16.6-2.4l-8.3 14.5 2.6 4.8c1.5 2.6 2.5 4.9 2.2 5.2-0.3 0.3-1.6-1.7-5.5-9.5h-16.5l-3.2 6c-1.8 3.3-3.6 5.8-4 5.5-0.5-0.2 0.8-3.1 6.3-12l-1.9-3.5c-1.1-1.9-3-5.1-4.2-7-2.2-3.4-2.3-3.5-9.6-3.8q-7.4-0.2-8.7 1c-1 1.1-1.3 1-1.2-0.4 0-1-1.6-4.7-7-14.8l-16.5-0.1-2.7 5.1c-1.6 2.7-3.1 4.8-3.5 4.5-0.5-0.2 0.4-2.5 2-5 1.5-2.5 2.6-5.1 2.5-5.7-0.2-0.7-1.9-4.1-7.3-13.8h-15.5l-8.5 14.1 2.8 4.9c1.5 2.8 2.5 5.2 2.2 5.5-0.3 0.3-1.7-1.8-6-9.6l-16 0.1-2.7 5c-1.6 2.8-3.1 4.8-3.5 4.5-0.5-0.2 0.5-2.6 2-5.2 2.5-4.1 2.7-5.2 1.8-7.3-0.6-1.4-2.4-4.6-7.1-12h-7.5c-7.5 0-7.5 0-9.7 3.5-1.3 2-2.4 3.4-2.6 3.3-0.1-0.2 0.5-1.9 1.4-3.8 1.6-3.5 1.5-3.6-5.6-17h-17l-3.6 6.8c-3.6 6.6-3.6 6.7-2 10.2 0.9 1.9 1.5 3.6 1.4 3.8-0.2 0.1-1.3-1.3-4.8-6.8h-7.7c-7.6-0.1-7.8 0-9.1 2.7-0.7 1.5-1.5 2.6-1.8 2.3-0.2-0.3 0.1-1.6 0.7-3 1-2.2 0.6-3.4-6.6-16h-16.5l-3.2 5.5c-1.8 3.1-3.4 5.3-3.5 5-0.2-0.3 1.1-3 2.7-6 2.8-5.2 2.9-5.7 1.5-8.5-0.8-1.7-1.5-3.3-1.5-3.7 0-0.5 0.9 0.7 2 2.5 2 3.2 2 3.2 18.5 3.2l3.8-6.5c2-3.6 3.7-6.7 3.7-7 0-0.3-1.7-3.4-7.5-13.5h-8.2c-8.2 0-8.3 0-9.8 3-0.8 1.7-1.7 2.9-2 2.8-0.3-0.2 0.2-1.9 1-3.8 1.6-3.5 1.6-3.6-6-16.9l-16.5-0.1-3.5 6.5c-1.9 3.6-3.7 6.3-4 6-0.3-0.3 1.2-3.3 6.9-13l-3.2-5.7c-1.8-3.2-3-6-2.7-6.3 0.3-0.3 2 2.2 7 11.5h15.5l2.3-3.5c1.2-2 2.3-3.4 2.5-3.3 0.1 0.2-0.5 1.9-1.4 3.8-1.6 3.5-1.6 3.6 5.6 17h16.5l7.7-13.5-3.1-5.7c-1.7-3.2-3-6-2.8-6.3 0.1-0.3 1.8 2.1 7.2 11l15.5 0.5 2-3.2c1.1-1.8 2.9-5.1 6.2-11.3l-7.7-13.5h-8.2c-8.2 0-8.3 0-9.8 3-0.8 1.7-1.7 2.8-2 2.5-0.3-0.3 0.2-1.8 1-3.5 1.4-2.9 1.3-3.3-2-9.5-1.9-3.6-3.4-6.7-3.2-7 0.1-0.2 1.9 2.5 7.7 12.5l16.2 0.5 8.3-13.6-2.7-4.9c-1.6-2.8-2.6-5.2-2.3-5.5 0.3-0.3 1.7 1.7 6 9.5h15.5l8-14-3.5-6.5c-1.9-3.6-3.3-6.7-3-7 0.3-0.3 2.1 2.4 7.5 12.5h16.5l3.3-6c1.7-3.3 3.4-5.8 3.7-5.5 0.3 0.3-0.8 2.9-2.5 5.8-1.6 2.8-3 5.8-3 6.5 0 0.6 1.7 4.1 7.5 14.2l15.9-0.5 2.3-4c1.3-2.2 2.8-4.7 3.3-5.5 0.4-0.8 1.1-1.3 1.4-1 0.2 0.3-1 3-6.1 11.5l8.2 13.6 16-0.1 7.8-13.5-3.6-6.5c-3.2-5.8-4-6.6-7.4-7.2-2.1-0.4-5.7-0.7-8-0.7-2.4-0.1-4.5 0.4-4.8 0.9-0.3 0.6-0.9 1-1.5 1-0.5 0-0.8-0.4-0.5-1 0.3-0.5-1.1-3.9-3-7.5-1.9-3.6-3.3-6.7-3-7 0.3-0.3 2.1 2.4 7.5 12.5h16.5l3.9-6.8c3.8-6.6 3.8-6.7 2.2-9.9-0.9-1.8-2.7-5.1-6.6-11.3h-15.5l-2.2 4c-1.3 2.2-2.5 3.8-2.8 3.5-0.3-0.3 0.4-2.2 3.7-8l-3.6-6.2c-2-3.5-3.6-6.5-3.6-6.8 0-0.3 0.2-0.5 0.5-0.5zm-97.4 4c0.5 0.8 1.9 3.2 4.9 9h17l2.5 4.3c1.3 2.3 2.5 4.7 2.5 5.2 0 0.6-1.4-1.1-6-8.5h-15.5l-8.3 14.5 2.2 3.3c1.1 1.8 1.8 3.6 1.4 4-0.4 0.4-1.5-1-4.3-6.8h-8.2c-8.3 0-8.3 0-10.3 3.3-1.1 1.7-2 2.9-2 2.5 0-0.5 0.7-2.1 1.5-3.8 1.4-2.8 1.3-3.3-1.2-7.5-1.6-2.5-2.5-4.8-2-5 0.4-0.3 1.9 1.8 6.2 9.6l15.5-0.1 8.3-14.5-2.6-4.7c-1.5-2.7-2.7-5.1-2.7-5.5 0-0.5 0.5-0.1 1.1 0.7zm200.6 29c0.4 0 1.9 2.4 6 10.5l-4.1 6.8c-2.2 3.7-4.2 6.5-4.3 6.2-0.2-0.3 1.4-3.3 7.1-13l-2.7-4.7c-1.5-2.7-2.7-5-2.7-5.3 0-0.3 0.3-0.5 0.7-0.5zm-173.8 147.4c0.3 0.3-0.4 2.1-1.6 4.1-1.3 1.9-2.3 4.1-2.3 4.8 0 0.9-1.7 1.1-6.8 0.7-3.7-0.3-7.6-0.6-8.6-0.5-1.3 0-3.2 2-5.5 5.8-2 3.2-3.7 5.5-3.8 5.2-0.2-0.3 1.1-3 2.8-6 2.2-3.8 2.9-6.1 2.5-7.7-0.6-1.9-0.5-2 0.4-0.5 0.8 1.4 2.5 1.7 17.5 1.7l2.4-4c1.4-2.3 2.7-3.9 3-3.6zm46.8 10.6c0.4 0 2.1 2.7 6.8 12.1l15.9-0.6 3.6-5.8c1.9-3.2 3.6-5.5 3.8-5.2 0.1 0.3-1.2 3.1-6.2 12l3.2 5.8c1.8 3.1 3 5.9 2.7 6.2-0.3 0.3-2-2.2-7-11.5h-16l-2.7 5c-1.6 2.8-3 4.8-3.3 4.5-0.3-0.3 0.7-2.6 4.8-10l-3.1-5.5c-1.7-3-3.2-5.8-3.2-6.2 0-0.5 0.3-0.8 0.7-0.8zm-47 18.4c0.2 0.3-0.4 1.9-1.2 3.6-0.8 1.7-1.7 2.8-2 2.5-0.3-0.3 0.3-1.9 1.2-3.6 0.9-1.7 1.8-2.8 2-2.5zm77 11.1c0.2 0.3-1 3-2.7 6-1.6 3-3.2 5.3-3.5 5-0.3-0.3 0.9-3 2.7-6 1.7-3.1 3.3-5.3 3.5-5z"/>
		<path id="Path 6" class="s3" d="m205.5 52.8l-3.9 6.7 7.9 14.5h16c5.8-10.1 7.5-13.4 7.5-14 0-0.5-1.7-3.9-3.8-7.5l-3.7-6.5h-16.2zm-75.1 14.5l-4.1 7.3 8.3 13.5 16-0.1c5.8-10 7.5-13.2 7.5-13.4 0-0.3-1.8-3.7-4-7.5l-4-7h-15.7zm-21.1 9c-0.5 0.6-2.4 3.6-4.1 6.5-1.7 2.8-3.1 5.8-3.1 6.5 0 0.6 1.7 4 3.8 7.5l3.7 6.2h15.5l8-14-8-14c-12.1 0-15.2 0.5-15.8 1.3zm46.5 5.2c-2.1 3.6-3.7 7-3.7 7.5 0 0.5 1.7 3.9 3.7 7.5l3.8 6.5 15.9-0.5 7.9-13-7.8-14.5h-16.2zm50 0c-2 3.6-3.6 7-3.6 7.5 0 0.5 1.7 3.9 3.7 7.5l3.8 6.5h15.5c3.8-6.2 5.7-9.5 6.5-11.2 1.6-3.2 1.5-3.4-2.2-10l-3.8-6.8h-16.2zm-75.1 15.3l-3.8 6.7c3.3 6.2 5.1 9.5 6.2 11.3 1.9 3 2.4 3.2 7.8 3.2 3.2 0 6.6-0.3 7.7-0.6 1.1-0.3 3.7-3.4 5.8-7 2.1-3.5 3.6-6.7 3.5-7.2-0.1-0.4-1.8-3.5-3.8-7l-3.5-6.3-16.1 0.1zm49.9 0l-3.6 6.8c5.2 9.7 7 12.8 7.4 13 0.4 0.3 4.2 0.6 8.3 0.7l7.6 0.3 7.9-14.5-7.5-13.1h-16.4zm49.9-0.4c-2 3.5-3.6 6.9-3.5 7.5 0 0.7 1.7 3.9 3.6 7.2l3.5 6h16.5c5.6-9.7 7.2-13.7 7.1-15.2-0.1-1.4-0.6-2.3-1.1-2-0.6 0.4-0.7 0-0.3-1.1 0.5-1 0.4-1.5-0.2-1.2-0.6 0.3-1.9-1.3-3-3.5l-2-4h-16.9zm-71.8 9.9c-0.8 1.2-2.7 4.2-4.2 6.5-1.6 2.3-2.7 4.7-2.6 5.2 0.1 0.6 1.8 4 3.9 7.6l3.7 6.5 16-0.5 7.5-13.5-7.6-13.5c-14.6-0.6-15.4-0.4-16.7 1.7zm50 0c-0.8 1.2-2.7 4.2-4.2 6.5-1.6 2.3-2.7 4.7-2.6 5.2 0.1 0.6 1.8 4 3.9 7.6l3.7 6.5 15.9-0.5 7.6-13.5-7.5-13.5c-14.7-0.6-15.5-0.4-16.8 1.7zm-103.4 5.5l-3.9 6.8 8.1 13.5h16c5.8-10.1 7.4-13.4 7.3-13.8-0.2-0.4-1.8-3.6-3.8-7l-3.5-6.3-16.3 0.1zm-24.5 13.7c-2.1 3.6-3.8 7.1-3.8 7.8 0 0.6 1.8 4 4 7.5l4 6.2c14.9 0 15 0 17-3.2 1.1-1.8 2.9-5.1 4.1-7.3l2.1-4-7.7-13.5-16 0.1zm50 0c-2.1 3.5-3.7 6.9-3.7 7.4 0 0.6 1.6 4 3.7 7.5l3.8 6.5h15.5l8-14-7.5-13.9h-16zm49.8 0.2c-3.6 6.6-3.7 6.8-2.2 10 0.9 1.8 2.7 5.1 4.1 7.3l2.5 4 15.3-0.5c6-9.7 7.6-13.1 7.5-13.8-0.2-0.7-1.9-4-3.8-7.5l-3.5-6.2h-16.2zm50-0.8c-2 3.3-3.6 6.6-3.6 7.3 0.1 0.7 1.6 4 3.5 7.5 2 3.4 4.3 6.4 5.3 6.7 0.9 0.3 4.4 0.4 7.6 0.3 3.2-0.2 6.2-0.5 6.6-0.8 0.4-0.3 2.4-3.3 4.4-6.7l3.6-6.3-7.5-14h-16.3zm102.1-2.2c-1.3 2-3.2 5.1-4.2 6.7l-1.8 3 7.9 14 15.9 0.7 8.5-14.2c-3.1-5.4-3.6-7.5-3.2-8.2q0.7-1.3-0.5-0.5c-0.8 0.5-1.8-0.3-2.8-2.3-1.5-2.9-1.6-3-9.5-3h-8zm-225.1 14.3c-1.2 1.9-3.1 5-4.2 7l-2.1 3.5 8.3 13.5 16-0.1 7.7-13.4c-5.1-9.3-6.8-12.4-7.1-12.8-0.4-0.5-4.2-0.9-8.5-1l-7.9-0.2zm48.1 3.1c-2.3 3.7-4.1 7-3.9 7.3 0.1 0.3 1.9 3.5 4 7.1l3.7 6.5 16-0.1c5.8-10 7.4-13.3 7.3-13.7-0.2-0.4-1.9-3.5-3.8-7l-3.5-6.2-15.6-0.5zm52.3-4c-1.1 1.8-2.9 5.1-4.1 7.3l-2.2 4 7.3 13.5 16.5-0.1 7.8-13.4c-5.1-9.3-7.1-12.6-7.7-13.3-0.7-0.9-3.6-1.3-8.3-1.3-7.1 0.1-7.3 0.2-9.3 3.3zm49.3 1.2c-1.4 2.2-3.3 5.4-4.3 7.1-1.7 3-1.7 3 2.4 9.8l4.1 6.8 16.7-0.6 7.3-13.2-8-13.8-15.7-0.2zm-176.5 17.1c-2.1 3.5-3.8 6.9-3.8 7.5 0 0.5 1.7 3.9 3.8 7.5l3.7 6.4c15.1 0.1 15.6-0.1 17.4-2.7 1-1.5 2.8-4.6 4-7l2.1-4.2-7.6-13.5-15.9-0.6zm53.5-5.2c-0.5 0.7-2.3 3.8-4.1 7l-3.1 5.8 7.5 13.9h16l7.8-13.4c-3.4-6.2-5.2-9.5-6.3-11.3-2-3.2-2.2-3.2-9.4-3.2-4.8 0-7.7 0.4-8.4 1.2zm47.7 3c-1.4 2.3-3.1 5.5-3.9 7.1-1.4 2.6-1.4 3.1 0.4 6 1.1 1.7 3 4.8 4.2 6.9l2.4 3.8 15.4-0.5 7.6-13.5-7.5-14.1-16.2 0.1zm48.7 2.7l-3.6 7c3.3 6.6 5.1 9.7 6.1 11.3 1.8 2.5 2.3 2.7 9.4 2.7h7.5c4.5-7.4 6.3-10.6 7-12 1-2.2 0.6-3.4-2.7-9.2l-3.8-6.8h-16.2zm-75 14.8l-3.8 6.7c5 9.3 6.8 12.5 7.3 13 0.5 0.6 4.4 0.9 8.6 0.8l7.7-0.1c5.8-9.9 7.5-13 7.5-13.4 0-0.5-1.6-3.7-3.7-7.3l-3.8-6.5-16 0.1zm50.1-0.3c-2 3.6-3.7 6.7-3.7 7 0 0.3 1.7 3.4 3.7 7l3.8 6.6 16.6-0.6 7.2-13-7.8-13.5h-16zm49.7 0.3c-3.3 6.1-3.5 6.9-2.3 9.2 0.7 1.4 2.4 4.4 3.8 6.8l2.5 4.2c15.9 0 16-0.1 18-3.3 1.2-1.7 2.9-4.8 4-6.7l1.9-3.5c-4.6-7.7-6.2-10.8-6.6-11.7-0.7-1.5-2.1-1.8-9.2-1.8h-8.4zm-24.4 14.2c-2.3 3.9-4 7.4-3.9 7.8 0.2 0.4 1.9 3.6 3.8 7l3.5 6.3h16l8.1-13.5-8.2-14-15.1-0.6zm26.5 11.8c-1.3 2-3.2 5.1-4.3 6.9l-1.9 3.2 8 13.6 16 0.6 8.3-14.6c-2.9-5-3.4-7-3-7.7q0.7-1.3-0.5-0.5c-0.8 0.5-1.8-0.3-2.8-2.3-1.5-2.9-1.6-3-9.5-3h-8z"/>
		<path id="Path 7" class="s4" d="m114 104.7c2.5 0.2 6.1 0.2 8 0 1.9-0.2-0.1-0.4-4.5-0.4-4.4 0-6 0.2-3.5 0.4zm50 29c1.9 0.2 5.3 0.2 7.5 0 2.2-0.2 0.6-0.4-3.5-0.4-4.1 0-5.9 0.2-4 0.4zm50 57c2.5 0.2 6.1 0.2 8 0 1.9-0.2-0.1-0.4-4.5-0.4-4.4 0-6 0.2-3.5 0.4z"/>
		<path id="Path 8" fill-rule="evenodd" class="s5" d="m182.7 91.4c0.2 0.3-1.1 3.2-2.8 6.3-3.1 5.7-3.2 5.8-1.5 9.3 0.9 1.9 1.5 3.6 1.4 3.8-0.2 0.1-1.3-1.3-4.8-6.8h-15.5l-3.7 6.5c-2.1 3.6-3.8 6.9-3.8 7.5 0 0.5 1.5 3.5 3.3 6.5 1.7 3.1 2.9 5.8 2.5 6-0.5 0.3-2.3-2.2-7.3-11.5h-16l-3.9 6.8c-2.9 5-3.6 7.3-3.1 9.2 0.6 2.3 0.5 2.3-0.7 0.7-1.1-1.5-2.7-1.9-17.3-1.9l-3.5 5.6c-1.9 3.1-3.6 5.4-3.7 5.1-0.2-0.3 1.1-3.1 6-12l-3.7-6.3c-2-3.4-3.4-6.4-3.1-6.7 0.3-0.3 2.1 2.4 7.5 12.5h16.5l3.9-6.7c3.3-5.9 3.7-7.1 2.7-9.3-0.6-1.4-1-2.6-0.9-2.8 0.2-0.1 1.1 0.9 2.1 2.3 1.6 2.3 2.3 2.5 16.7 2.5l8.3-14.5-2.7-4.8c-1.5-2.7-2.5-5-2.2-5.3 0.3-0.2 1.7 1.8 5.6 9.6h16.5l3.4-6.1c1.9-3.3 3.6-5.8 3.8-5.5zm70-0.4c0.4 0 2.1 2.7 6.8 12.1l17 0.3-17 0.7-3.7 6.4c-2.1 3.6-3.8 7.1-3.8 7.7 0 0.7 1.4 3.7 3 6.5 1.7 2.9 2.8 5.5 2.5 5.8-0.3 0.3-2-2.2-7-11.5h-16.5l-3 5.5c-1.6 3-3.2 5.3-3.5 5-0.3-0.3 0.9-3 5.5-11.5l-3-5.5c-1.6-3-2.9-5.7-2.7-6 0.1-0.3 1.7 1.9 6.7 10.5h16.5l7.8-13.5-3.1-5.8c-1.8-3.1-3.2-5.9-3.2-6.2 0-0.3 0.3-0.5 0.7-0.5zm-70 29.5c0.2 0.3-1 3-2.7 6-1.6 3-3.2 5.3-3.5 5-0.3-0.3 0.9-3 2.7-6 1.7-3 3.3-5.2 3.5-5zm172.8 4.5c0.3 0 1.4 1.8 4.5 8l-3.7 6.5c-2.1 3.5-4 6.2-4.3 6-0.3-0.3 1.2-3.2 7-12.5l-2-3.3c-1.1-1.7-2-3.5-2-4 0-0.4 0.2-0.7 0.5-0.7zm-178 10c0.3 0 2 2.7 7 12l15.9-0.5 3.6-5.8c1.9-3.2 3.6-5.5 3.8-5.2 0.1 0.3-1.2 3.1-6.2 12l3.2 5.7c1.8 3.2 3 6 2.7 6.3-0.3 0.3-2-2.2-7-11.5h-16l-2.2 4c-1.3 2.2-2.5 3.8-2.8 3.5-0.3-0.3 0.5-2.2 3.8-8l-3.1-5.5c-1.7-3-3.2-5.8-3.2-6.3 0-0.4 0.2-0.7 0.5-0.7zm74 13c0.3 0 2.1 2.9 7.5 13h17l2-4c1.1-2.2 2.2-3.8 2.5-3.5 0.3 0.3-0.5 2.3-4 8.5l2.3 4c1.2 2.2 2 4.2 1.7 4.5-0.3 0.3-1.4-1.3-4.5-7.5h-8.5c-8.4 0-8.5 0-10 3-0.8 1.7-1.7 2.9-2 2.7-0.3-0.1 0.2-1.8 1.1-3.7 1.6-3.5 1.5-3.6-2-9.8-2-3.4-3.6-6.4-3.6-6.7 0-0.3 0.2-0.5 0.5-0.5zm-143.8 16.4c0.2 0.3-0.4 1.9-1.2 3.6-0.8 1.7-1.7 2.8-2 2.5-0.3-0.3 0.3-1.9 1.2-3.6 0.9-1.7 1.8-2.8 2-2.5zm172.8 33.6c0.3 0 1.2 1.3 2 3 0.8 1.7 1.3 3.2 1 3.5-0.3 0.3-1.2-0.8-2-2.5-0.8-1.7-1.5-3.2-1.5-3.5 0-0.3 0.2-0.5 0.5-0.5z"/>
	</g>
</svg>